<?xml version="1.0" standalone="no"?>
<svg xmlns:xlink="http://www.w3.org/1999/xlink" id="wave" style="transform:rotate(0deg); transition: 0.3s" viewBox="0 0 1440 490" version="1.1" xmlns="http://www.w3.org/2000/svg"><defs><linearGradient id="sw-gradient-0" x1="0" x2="0" y1="1" y2="0"><stop stop-color="rgba(44, 37, 73, 1)" offset="0%"/><stop stop-color="rgba(169, 165, 192, 1)" offset="100%"/></linearGradient></defs><path style="transform:translate(0, 0px); opacity:1" fill="url(#sw-gradient-0)" d="M0,147L120,171.5C240,196,480,245,720,220.5C960,196,1200,98,1440,106.2C1680,114,1920,229,2160,285.8C2400,343,2640,343,2880,343C3120,343,3360,343,3600,326.7C3840,310,4080,278,4320,236.8C4560,196,4800,147,5040,147C5280,147,5520,196,5760,196C6000,196,6240,147,6480,163.3C6720,180,6960,261,7200,310.3C7440,359,7680,376,7920,383.8C8160,392,8400,392,8640,351.2C8880,310,9120,229,9360,163.3C9600,98,9840,49,10080,32.7C10320,16,10560,33,10800,32.7C11040,33,11280,16,11520,32.7C11760,49,12000,98,12240,171.5C12480,245,12720,343,12960,392C13200,441,13440,441,13680,392C13920,343,14160,245,14400,220.5C14640,196,14880,245,15120,253.2C15360,261,15600,229,15840,245C16080,261,16320,327,16560,351.2C16800,376,17040,359,17160,351.2L17280,343L17280,490L17160,490C17040,490,16800,490,16560,490C16320,490,16080,490,15840,490C15600,490,15360,490,15120,490C14880,490,14640,490,14400,490C14160,490,13920,490,13680,490C13440,490,13200,490,12960,490C12720,490,12480,490,12240,490C12000,490,11760,490,11520,490C11280,490,11040,490,10800,490C10560,490,10320,490,10080,490C9840,490,9600,490,9360,490C9120,490,8880,490,8640,490C8400,490,8160,490,7920,490C7680,490,7440,490,7200,490C6960,490,6720,490,6480,490C6240,490,6000,490,5760,490C5520,490,5280,490,5040,490C4800,490,4560,490,4320,490C4080,490,3840,490,3600,490C3360,490,3120,490,2880,490C2640,490,2400,490,2160,490C1920,490,1680,490,1440,490C1200,490,960,490,720,490C480,490,240,490,120,490L0,490Z"/></svg>